<?xml version="1.0" standalone="no"?>
<!DOCTYPE svg PUBLIC "-//W3C//DTD SVG 20010904//EN"
 "http://www.w3.org/TR/2001/REC-SVG-20010904/DTD/svg10.dtd">
<svg version="1.0" xmlns="http://www.w3.org/2000/svg"
 width="740.000000pt" height="740.000000pt" viewBox="0 0 740.000000 740.000000"
 preserveAspectRatio="xMidYMid meet">
<metadata>
Created by potrace 1.14, written by Peter Selinger 2001-2017
</metadata>
<g transform="translate(0.000000,740.000000) scale(0.100000,-0.100000)"
fill="#000000" stroke="none">
<path d="M2684 5671 c-2 -2 -21 -5 -42 -7 -72 -4 -134 -14 -154 -25 -11 -6
-26 -8 -34 -5 -8 3 -14 1 -14 -5 0 -6 -4 -7 -10 -4 -5 3 -10 1 -10 -4 0 -6 -9
-11 -20 -11 -11 0 -20 -5 -20 -12 0 -6 -3 -9 -6 -5 -7 7 -117 -49 -153 -78
-49 -41 -86 -84 -103 -121 -6 -13 -16 -24 -21 -24 -6 0 -8 -2 -5 -5 7 -8 -115
-133 -124 -128 -5 2 -8 -2 -8 -11 0 -8 -7 -13 -15 -12 -23 3 -29 15 -11 22 9
3 16 12 16 19 0 8 9 17 21 20 12 4 18 12 15 21 -3 7 -2 13 2 11 4 -1 8 1 9 6
5 15 28 35 36 30 4 -2 7 0 7 6 0 6 13 33 30 61 16 27 26 50 22 50 -4 0 -1 4 5
8 7 4 15 19 17 32 2 14 5 27 6 30 2 3 2 8 1 13 0 4 3 7 8 7 5 0 7 14 6 30 -1
17 2 30 7 30 5 0 6 5 3 10 -3 6 -20 7 -38 4 -18 -3 -41 -7 -52 -8 -11 -1 -26
-5 -32 -9 -7 -5 -13 -6 -13 -3 0 3 -18 -1 -40 -9 -22 -8 -40 -12 -40 -10 0 2
-16 -3 -35 -11 -19 -8 -37 -14 -40 -14 -3 0 -24 -8 -47 -17 -24 -10 -46 -17
-50 -15 -5 1 -8 -2 -8 -6 0 -5 -18 -17 -40 -27 -22 -10 -40 -23 -40 -28 0 -6
-3 -8 -6 -4 -4 3 -12 1 -19 -6 -7 -7 -23 -21 -36 -33 -44 -39 -105 -124 -89
-124 6 0 2 -9 -9 -21 -17 -18 -25 -42 -48 -134 -2 -11 -6 -59 -8 -108 -2 -48
-7 -92 -10 -97 -3 -6 -1 -10 5 -10 7 0 10 -6 7 -13 -3 -8 -1 -20 3 -27 6 -9 1
-20 -12 -32 -12 -10 -18 -18 -13 -18 4 0 -9 -13 -30 -30 -21 -16 -34 -30 -29
-30 5 0 -3 -8 -16 -17 -14 -9 -28 -23 -33 -29 -8 -14 -37 -8 -37 8 0 5 4 7 9
4 5 -4 15 7 23 24 7 16 16 30 20 30 4 0 4 7 1 17 -4 9 -2 14 3 11 5 -3 20 29
34 72 14 43 22 76 17 73 -5 -3 -4 4 3 17 6 12 9 28 6 35 -3 8 -1 17 3 19 7 5
7 74 -1 226 0 8 -5 21 -11 28 -5 6 -6 12 -2 12 4 0 2 6 -4 14 -9 11 -9 15 1
19 10 4 10 6 1 6 -7 1 -13 8 -13 18 0 14 -3 14 -22 -3 -12 -10 -18 -13 -14 -7
8 15 -115 -65 -126 -81 -4 -6 -8 -8 -8 -3 0 4 -20 -13 -45 -38 -25 -24 -44
-47 -43 -49 2 -2 -9 -15 -23 -28 -14 -13 -37 -42 -49 -65 -13 -24 -28 -43 -33
-43 -5 0 -7 -6 -5 -12 3 -7 -1 -19 -9 -26 -7 -8 -11 -18 -8 -23 4 -5 1 -9 -4
-9 -6 0 -11 -12 -11 -26 0 -15 -4 -23 -11 -19 -6 4 -9 1 -8 -6 3 -20 -10 -91
-22 -112 -6 -11 -6 -24 1 -37 7 -12 7 -21 0 -25 -6 -3 -8 -16 -6 -28 6 -25 17
-114 18 -137 0 -8 5 -21 11 -27 5 -7 6 -13 2 -13 -4 0 -2 -7 5 -15 7 -9 10
-18 7 -22 -4 -3 -2 -13 5 -20 7 -9 8 -17 2 -21 -5 -4 -10 -16 -12 -27 -5 -39
-9 -49 -18 -52 -9 -3 -15 32 -18 104 0 18 -5 33 -10 33 -5 0 -7 3 -3 6 3 3 -1
25 -10 47 -8 23 -16 47 -18 52 -10 37 -28 75 -37 75 -5 0 -7 4 -3 9 3 5 0 16
-7 23 -7 8 -18 22 -24 33 -12 22 -34 32 -34 15 0 -6 -18 -38 -40 -71 -23 -32
-37 -59 -33 -59 4 0 1 -5 -8 -10 -8 -5 -21 -27 -29 -49 -7 -22 -17 -38 -21
-35 -4 2 -6 -5 -4 -16 2 -11 -1 -20 -7 -20 -5 0 -8 -7 -5 -15 4 -8 2 -17 -3
-20 -6 -4 -10 -17 -10 -30 0 -13 -5 -27 -10 -30 -8 -5 -8 -11 0 -20 8 -10 8
-15 0 -20 -6 -4 -10 -14 -8 -23 1 -10 -1 -23 -5 -29 -5 -7 -5 -13 0 -13 4 0 8
-19 9 -42 0 -24 3 -56 6 -71 9 -37 50 -127 58 -127 4 0 7 -6 8 -12 0 -7 3 -24
7 -38 3 -14 8 -42 9 -63 3 -34 2 -37 -18 -31 -11 4 -26 11 -33 16 -20 16 -95
12 -108 -6 -7 -8 -15 -14 -18 -11 -4 3 -5 2 -2 -2 3 -3 0 -12 -7 -20 -6 -8
-12 -33 -14 -56 -1 -23 -5 -50 -9 -59 -5 -12 -3 -18 5 -18 8 0 9 -4 3 -12 -13
-19 -17 -188 -4 -188 6 0 11 -7 11 -15 0 -22 53 -45 104 -45 46 0 64 -16 39
-35 -8 -6 -15 -18 -16 -27 -2 -9 -9 -23 -16 -32 -7 -9 -10 -16 -5 -16 5 0 4
-4 -3 -8 -6 -4 -13 -16 -15 -27 -1 -11 -6 -23 -10 -26 -5 -3 -9 -17 -10 -32
-1 -15 -6 -27 -11 -27 -4 0 -5 -5 -2 -10 4 -6 3 -16 -2 -23 -5 -7 -9 -27 -9
-44 1 -18 -2 -33 -5 -33 -8 0 -3 -65 6 -80 5 -9 4 -11 -4 -6 -8 6 -10 1 -6
-16 4 -13 8 -33 10 -44 2 -10 4 -21 5 -24 1 -3 2 -9 1 -13 -1 -4 4 -18 11 -30
6 -12 13 -33 14 -47 2 -13 11 -30 20 -37 9 -6 13 -16 9 -22 -3 -6 -2 -11 3
-11 8 0 36 -50 32 -59 -1 -2 3 -7 8 -10 6 -3 12 -13 14 -21 3 -14 7 -20 36
-54 7 -9 13 -19 15 -23 1 -5 5 -7 9 -6 4 2 5 -4 2 -12 -4 -8 -1 -15 5 -15 6 0
11 4 11 8 0 9 44 33 67 38 10 2 10 -3 3 -17 -6 -10 -7 -19 -2 -19 4 0 9 -14
10 -31 1 -17 12 -61 24 -98 12 -36 21 -69 20 -73 -1 -5 2 -8 6 -8 5 0 14 -16
22 -35 8 -19 17 -35 21 -35 4 0 10 -8 14 -19 7 -24 108 -131 123 -131 7 0 11
-6 9 -13 -1 -6 4 -11 11 -9 7 1 15 -5 18 -13 4 -8 12 -15 20 -15 8 0 14 -5 14
-11 0 -5 5 -7 10 -4 6 3 10 1 10 -5 0 -7 7 -10 15 -6 8 3 18 -1 23 -10 4 -8
17 -16 28 -18 10 -2 32 -11 48 -20 16 -8 33 -13 38 -10 4 3 8 -1 8 -8 0 -11 2
-10 9 0 7 11 9 11 14 -1 3 -9 14 -14 24 -12 10 1 24 -2 31 -8 6 -5 12 -8 13
-6 0 2 2 13 5 24 2 11 5 35 6 53 2 22 7 31 16 27 8 -3 16 -5 18 -5 2 0 4 -7 4
-16 0 -8 4 -13 8 -10 4 2 14 -9 21 -25 7 -16 17 -27 22 -23 5 3 9 -2 9 -10 0
-8 9 -20 20 -26 11 -6 17 -16 14 -22 -4 -7 -3 -8 4 -4 7 4 12 2 12 -5 0 -7 2
-10 5 -7 3 3 24 -12 47 -34 23 -21 47 -38 53 -38 7 0 18 -7 25 -15 7 -8 16
-12 21 -9 5 3 12 -2 15 -11 4 -9 13 -14 20 -11 8 3 14 1 14 -4 0 -6 9 -10 20
-10 11 0 20 -5 20 -11 0 -5 4 -8 9 -4 5 3 13 0 16 -6 4 -5 13 -8 21 -5 8 3 14
2 14 -3 0 -4 33 -14 73 -21 39 -7 77 -17 84 -22 7 -5 13 -4 15 2 2 8 11 8 30
1 34 -13 42 -3 22 27 -9 13 -18 43 -20 66 -3 22 -7 47 -9 54 -2 6 -2 12 1 12
7 0 45 -21 58 -32 6 -4 22 -17 35 -28 13 -11 28 -17 32 -14 5 3 9 0 9 -5 0 -6
7 -11 15 -11 8 0 15 -4 15 -10 0 -5 5 -10 10 -10 6 0 29 -9 52 -20 22 -11 44
-17 49 -15 4 3 11 0 16 -7 4 -7 15 -14 23 -14 8 -1 29 -5 45 -8 62 -13 101
-18 147 -20 26 -1 51 -5 54 -9 4 -4 14 -1 22 6 13 10 14 9 7 -2 -6 -10 -4 -12
4 -7 7 5 29 10 49 11 20 2 60 7 87 10 28 4 55 7 62 7 6 1 9 7 6 15 -3 7 -9 10
-14 7 -5 -3 -6 2 -3 10 3 9 1 16 -6 16 -6 0 -8 4 -5 10 3 5 2 10 -3 10 -6 0
-13 11 -16 25 -4 16 -11 23 -18 19 -7 -5 -8 -3 -3 6 4 7 4 15 -1 19 -14 10
-36 52 -30 58 3 3 29 -6 57 -21 29 -14 57 -26 61 -26 5 0 21 -8 35 -17 29 -19
90 -44 111 -45 6 -1 12 -4 12 -8 0 -8 3 -8 106 -14 68 -4 117 1 169 18 47 15
75 30 75 39 0 6 3 8 6 4 4 -3 13 1 21 9 8 8 19 12 24 9 5 -4 9 1 9 9 0 9 7 13
20 11 11 -2 20 1 20 6 0 6 5 7 10 4 6 -3 10 -1 10 6 0 6 8 9 20 6 11 -3 18 -2
16 2 -5 7 81 36 97 33 15 -4 6 14 -18 38 -14 14 -35 35 -47 48 -12 12 -28 22
-35 22 -8 0 -12 4 -9 9 6 8 -30 25 -47 22 -5 -1 -6 3 -2 9 3 5 -1 10 -9 10 -9
0 -16 5 -16 11 0 5 -4 7 -10 4 -5 -3 -10 -1 -10 4 0 11 16 16 35 11 6 -1 16
-3 23 -3 6 0 12 -5 12 -10 0 -5 6 -4 14 2 9 8 16 8 20 2 4 -5 36 -9 71 -8 36
1 65 -1 65 -5 0 -4 11 -3 25 2 18 7 25 6 25 -3 0 -9 2 -9 9 1 4 7 12 12 17 11
14 -4 114 42 114 52 0 5 6 9 13 9 6 0 31 18 55 40 23 22 47 40 53 40 5 0 8 4
5 8 -3 5 6 16 20 26 13 11 24 24 24 30 0 6 9 17 20 24 17 10 18 15 8 26 -7 7
-24 13 -38 14 -14 0 -27 1 -30 2 -26 9 -132 22 -197 24 -24 1 -43 4 -43 8 0 4
-9 5 -20 3 -25 -5 -27 13 -2 22 9 4 23 15 30 25 7 10 16 17 20 15 4 -2 21 11
39 30 18 18 29 33 25 33 -3 0 3 7 16 15 12 9 34 37 49 63 15 26 30 49 33 52 3
3 5 12 5 20 0 8 2 17 6 20 4 3 9 20 12 38 5 33 5 33 -43 37 -8 0 -21 4 -28 8
-6 5 -12 5 -12 0 0 -4 -17 -8 -38 -7 -20 0 -41 -3 -47 -6 -5 -4 -22 -10 -37
-14 -16 -3 -28 -11 -28 -16 0 -5 -7 -7 -15 -4 -8 4 -15 1 -15 -5 0 -6 -7 -11
-15 -11 -9 0 -18 -7 -21 -15 -4 -8 -10 -12 -15 -9 -5 3 -9 0 -9 -5 0 -6 -4
-10 -9 -9 -12 4 -158 -147 -166 -172 -3 -11 -10 -20 -15 -20 -5 0 -16 -13 -25
-30 -9 -16 -12 -30 -9 -30 4 0 -13 -20 -38 -45 -34 -36 -53 -47 -85 -51 -30
-3 -42 -1 -46 10 -4 9 -1 13 6 10 7 -2 20 9 30 26 10 16 23 30 28 30 6 0 8 4
5 8 -3 5 6 20 20 35 14 15 22 27 19 27 -4 0 0 7 7 15 23 25 33 40 36 54 1 7 9
19 17 27 7 8 17 24 21 37 4 12 9 24 13 27 16 13 60 109 52 114 -12 8 -91 -4
-115 -16 -14 -8 -17 -7 -11 3 6 9 4 10 -6 3 -8 -5 -16 -9 -19 -9 -30 -4 -122
-39 -134 -50 -8 -8 -18 -15 -23 -15 -5 0 -15 -9 -23 -20 -8 -11 -20 -20 -28
-20 -7 0 -11 -4 -8 -9 4 -5 3 -11 -2 -13 -14 -6 -72 -92 -72 -107 0 -8 -3 -12
-6 -8 -7 7 -44 -60 -44 -78 0 -6 -9 -17 -20 -25 -11 -8 -20 -20 -20 -27 0 -17
-80 -74 -93 -66 -6 4 -1 14 12 25 13 10 19 18 15 18 -5 0 -1 5 9 11 9 6 15 14
12 20 -4 5 1 12 10 15 9 4 14 13 11 20 -3 8 -1 14 4 14 6 0 9 3 8 8 0 4 2 16
6 27 21 55 27 72 30 90 2 11 8 28 11 38 7 17 4 18 -31 11 -22 -3 -47 -11 -56
-15 -9 -5 -21 -9 -25 -8 -4 1 -25 -5 -45 -14 -21 -10 -42 -17 -48 -17 -5 0
-10 -5 -10 -11 0 -5 -4 -8 -9 -4 -5 3 -12 1 -16 -5 -4 -6 -11 -8 -16 -5 -5 4
-9 1 -9 -4 0 -6 -3 -10 -7 -9 -5 1 -28 -8 -51 -21 -24 -12 -46 -20 -49 -17 -3
3 0 19 6 37 15 44 14 47 -11 45 -13 -1 -27 0 -33 3 -5 3 -28 7 -50 7 -22 1
-42 3 -45 4 -6 3 -9 2 -44 -4 -16 -3 -26 0 -26 7 0 9 -2 9 -8 1 -4 -6 -14 -11
-22 -12 -15 0 -48 -5 -125 -17 -22 -4 -42 -10 -45 -14 -14 -17 -80 12 -80 36
0 7 -7 13 -15 13 -8 0 -15 4 -15 8 0 19 -171 88 -184 74 -3 -3 -6 0 -6 5 0 6
-8 10 -17 8 -10 -1 -26 1 -35 6 -11 6 -18 5 -21 -4 -4 -9 -6 -9 -6 1 -1 7 -5
10 -11 7 -5 -3 -18 -1 -29 5 -11 5 -22 7 -24 3 -3 -5 -42 -8 -88 -8 -86 0 -87
0 -91 53 -1 6 -4 12 -7 12 -3 0 -12 14 -19 30 -8 17 -17 28 -21 25 -4 -2 -8 2
-8 9 0 9 18 12 64 10 42 -1 61 2 56 9 -4 6 -1 7 8 1 20 -13 120 -14 112 -1 -4
6 -1 7 8 1 20 -13 90 -14 82 -1 -4 6 -1 7 8 1 20 -13 149 -13 149 0 0 8 3 8 8
0 4 -6 39 -10 77 -10 39 0 73 4 77 10 5 8 8 8 8 0 0 -6 29 -10 75 -10 46 0 75
4 75 10 0 8 3 8 8 0 10 -14 152 -14 152 0 0 7 3 8 8 1 10 -14 135 -15 144 -1
6 8 8 8 8 0 0 -6 22 -11 55 -11 33 0 55 5 55 11 0 8 3 8 8 0 10 -14 112 -14
112 0 0 8 2 8 8 0 4 -6 30 -11 57 -11 28 0 53 5 57 11 6 8 8 8 8 0 0 -13 128
-13 149 0 9 6 12 5 8 -1 -8 -13 92 -12 112 1 9 6 12 5 8 -1 -8 -13 92 -12 112
1 9 6 12 5 8 -1 -8 -13 92 -12 112 1 9 6 12 5 8 -1 -8 -13 92 -12 112 1 9 6
12 5 8 -1 -8 -13 92 -12 112 1 9 6 12 5 8 -1 -4 -6 25 -10 78 -10 56 0 85 4
85 11 0 8 2 8 8 0 9 -15 152 -14 152 1 0 6 3 6 8 -1 4 -6 39 -10 77 -10 39 0
73 4 77 10 5 8 8 8 8 0 0 -6 29 -10 75 -10 46 0 75 4 75 10 0 7 3 8 8 1 10
-14 114 -16 105 -2 -4 6 -1 7 8 1 20 -13 120 -14 112 -1 -4 6 -1 7 8 1 20 -13
120 -14 112 -1 -4 6 -1 7 8 1 20 -13 120 -14 112 -1 -4 6 -1 7 8 1 20 -13 120
-14 112 -1 -4 6 -1 7 8 1 20 -13 120 -14 112 -1 -4 6 -1 7 8 1 20 -13 120 -14
112 -1 -4 6 -1 7 8 1 20 -13 120 -14 112 -1 -4 6 -1 7 8 1 20 -13 120 -14 112
-1 -4 6 -1 7 8 1 20 -13 120 -14 112 -1 -4 6 -1 7 8 1 20 -13 90 -14 82 -1 -4
6 -1 7 8 1 20 -13 149 -13 149 0 0 8 3 8 8 0 9 -14 145 -14 154 0 5 8 8 8 8 0
0 -6 29 -10 75 -10 46 0 75 4 75 10 0 8 3 8 8 0 10 -14 152 -14 152 0 0 7 3 8
8 1 10 -14 135 -15 144 -1 6 8 8 8 8 0 0 -14 102 -14 112 0 5 8 8 8 8 0 0 -14
80 -14 80 0 0 8 3 8 8 0 8 -12 114 -15 106 -3 -3 5 -1 9 4 9 9 0 8 47 -2 57
-3 3 -1 14 5 24 6 13 6 19 -1 19 -5 0 -10 5 -10 11 0 5 4 8 9 5 12 -8 8 27 -4
36 -6 5 -6 8 1 8 11 0 11 46 0 57 -3 3 -1 14 5 24 6 13 6 19 -1 19 -5 0 -10 5
-10 11 0 5 4 8 8 5 10 -6 9 45 -1 62 -5 6 -4 12 1 12 5 0 9 7 9 15 0 8 -5 15
-10 15 -5 0 -5 6 2 13 8 10 7 17 -1 25 -7 7 -8 12 -2 12 6 0 11 7 11 15 0 8
-4 15 -9 15 -5 0 -6 4 -3 10 10 16 14 50 7 50 -4 0 -8 9 -8 20 0 11 3 20 7 20
7 0 3 49 -5 57 -3 3 -1 14 5 24 6 13 6 19 -1 19 -5 0 -10 5 -10 11 0 5 3 8 8
6 4 -3 7 15 7 39 0 24 -3 44 -7 44 -4 0 -3 11 2 24 5 15 5 27 -3 35 -7 7 -7
11 -1 11 6 0 11 7 11 15 0 8 -5 15 -10 15 -5 0 -5 6 2 13 8 10 7 17 -1 25 -9
9 -9 12 0 12 14 0 12 21 -3 33 -7 4 -7 10 0 15 11 7 12 48 2 59 -4 3 -2 14 4
24 6 13 6 19 -1 19 -5 0 -10 5 -10 11 0 5 4 8 9 5 12 -8 8 27 -4 36 -6 5 -6 8
1 8 11 0 11 46 0 57 -3 3 -1 14 5 24 6 13 6 19 -1 19 -5 0 -10 5 -10 11 0 5 4
8 8 5 10 -6 7 67 -3 84 -6 9 -4 11 4 5 10 -6 11 -3 2 14 -7 11 -8 21 -3 21 10
0 8 48 -2 57 -3 3 -1 14 5 24 6 13 6 19 -1 19 -5 0 -10 5 -10 11 0 5 3 8 8 6
4 -3 7 15 7 39 0 24 -3 44 -8 44 -4 0 -3 9 3 19 7 14 7 22 -1 27 -7 4 -634 7
-1395 7 l-1384 0 1 21 c1 18 -6 69 -15 116 -1 8 -10 32 -19 54 -10 21 -17 42
-17 47 0 5 -4 9 -9 9 -5 0 -13 9 -16 20 -4 12 -33 48 -66 82 -32 33 -59 62
-59 64 0 2 10 4 23 3 101 -2 217 31 231 66 6 16 -34 65 -53 65 -7 0 -9 5 -6
10 6 9 -8 14 -28 11 -5 -1 -6 3 -2 9 3 5 -2 13 -12 17 -10 4 -26 15 -35 26 -9
10 -22 16 -27 12 -6 -3 -11 -2 -11 3 0 9 -47 36 -65 37 -5 0 -12 3 -15 6 -10
12 -130 50 -140 44 -5 -3 -10 -2 -10 3 0 5 -20 9 -45 9 -25 0 -48 2 -51 5 -8
8 -160 -3 -171 -12 -2 -2 -8 -3 -13 -4 -6 0 -14 -5 -18 -11 -4 -5 -14 -11 -22
-11 -8 -1 -34 -6 -58 -12 -57 -13 -63 2 -10 29 24 12 46 27 50 33 4 6 8 7 8 2
0 -5 7 -3 15 4 8 7 15 9 15 5 0 -4 6 -2 13 4 8 6 18 7 22 3 5 -4 6 -2 2 4 -3
5 11 19 31 29 20 11 43 24 51 29 7 6 25 12 39 14 15 2 32 8 38 13 7 5 17 8 24
7 7 -2 14 2 17 8 4 12 -65 61 -79 56 -5 -1 -8 2 -8 7 0 8 -28 22 -50 26 -3 0
-15 6 -27 13 -13 7 -23 10 -23 7 0 -3 -10 -1 -21 6 -17 9 -20 8 -13 -3 6 -11
5 -11 -9 1 -9 7 -17 10 -17 6 0 -4 -6 -3 -12 2 -16 13 -272 6 -285 -7 -2 -1
-11 -3 -20 -5 -10 -1 -25 -5 -33 -8 -8 -4 -26 -9 -40 -11 -14 -3 -27 -5 -30
-6 -3 -2 -8 -2 -12 -1 -5 0 -8 -4 -8 -10 0 -5 -4 -7 -10 -4 -5 3 -10 2 -10 -4
0 -5 -11 -8 -25 -7 -13 2 -22 -1 -19 -5 3 -5 -4 -9 -15 -9 -10 0 -26 -3 -34
-6 -20 -7 -16 12 9 53 12 18 25 30 30 25 5 -4 6 -3 1 2 -4 5 1 18 10 29 10 11
12 17 5 13 -7 -4 -1 10 14 31 l25 38 -33 7 c-18 4 -60 10 -93 12 -33 3 -60 6
-60 6 0 4 -67 4 -71 1z m-300 -513 c-2 -3 -39 -7 -82 -7 -73 -1 -91 -3 -172
-16 -87 -14 -133 -4 -115 25 5 8 10 8 21 -1 8 -6 14 -7 14 -2 0 5 17 11 38 12
20 1 51 3 67 5 17 2 64 7 105 11 41 4 77 9 79 11 6 5 49 -30 45 -38z m722 7
c-10 -8 -23 -12 -27 -9 -5 3 -9 1 -9 -4 0 -6 -11 -9 -24 -8 -13 0 -22 4 -19 9
2 4 -1 7 -8 7 -28 0 2 12 42 16 24 3 46 7 48 10 2 2 7 1 10 -2 3 -3 -3 -12
-13 -19z m-1182 -46 c11 -11 15 -23 10 -31 -4 -7 -4 -10 1 -6 4 4 20 -9 36
-30 30 -40 23 -55 -20 -42 -27 7 -156 5 -203 -3 -37 -7 -40 3 -10 33 14 14 22
18 17 10 -4 -8 5 -1 21 16 68 71 111 86 148 53z m457 -265 c19 -3 40 -7 47 -7
6 0 12 -4 12 -9 0 -5 9 -4 19 2 14 7 22 7 27 -1 3 -6 15 -9 25 -6 11 3 19 2
19 -2 0 -8 42 -7 57 2 7 4 14 4 16 -1 3 -4 34 -7 69 -7 61 0 63 1 66 28 4 30
23 35 42 12 7 -8 19 -15 26 -15 8 0 14 -4 14 -9 0 -5 15 -14 33 -21 17 -8 39
-19 48 -27 9 -7 25 -15 36 -17 10 -2 36 -13 56 -25 20 -11 37 -17 37 -13 0 4
5 0 10 -8 8 -12 10 -12 10 -1 0 10 5 10 25 -3 14 -9 25 -14 25 -11 0 3 9 1 19
-4 15 -9 20 -6 26 12 4 12 8 34 10 50 1 15 3 32 4 37 0 6 8 10 17 10 10 0 14
-5 10 -16 -3 -8 -2 -12 3 -9 6 3 18 -8 27 -24 10 -17 21 -28 26 -25 4 3 8 -3
8 -12 0 -10 2 -15 5 -12 3 3 24 -12 46 -33 22 -21 53 -44 69 -51 16 -7 26 -16
24 -20 -3 -4 2 -8 11 -8 8 0 23 -4 33 -9 47 -26 85 -40 93 -35 5 3 9 -1 9 -9
0 -12 -130 -14 -895 -14 -492 0 -895 1 -895 3 0 2 16 19 35 38 19 20 35 33 35
30 0 -3 17 15 38 40 20 24 41 45 45 45 5 1 15 7 22 15 8 7 25 12 39 11 15 -2
26 2 26 8 0 7 5 5 10 -3 5 -8 10 -10 10 -4 0 6 10 12 23 12 31 0 147 33 147
42 0 4 10 10 23 14 28 7 28 7 54 30 12 10 20 23 17 28 -3 4 4 8 15 8 12 0 21
5 21 10 0 7 6 7 19 1 10 -6 33 -13 52 -17z m1231 -129 c5 -7 8 -7 8 0 0 6 4 5
8 -2 4 -6 14 -13 22 -15 8 -2 22 -10 30 -19 8 -9 26 -20 40 -24 14 -4 31 -15
38 -24 10 -12 12 -12 6 -1 -7 13 -5 13 12 0 10 -8 30 -21 43 -28 19 -11 22
-11 15 0 -4 7 1 6 12 -4 10 -9 28 -18 39 -20 11 -1 22 -6 25 -10 3 -4 22 -8
42 -10 22 -1 34 -6 31 -13 -5 -14 -413 -18 -413 -5 0 5 4 20 9 33 6 14 7 28 4
31 -4 3 -7 23 -9 44 -2 43 -7 62 -17 79 -18 29 33 18 55 -12z m-2537 -449
c-31 -31 -60 -56 -65 -56 -4 0 -5 11 -2 25 2 14 9 25 14 25 5 0 6 5 3 10 -3 6
-1 10 5 10 6 0 8 5 5 10 -3 6 -1 10 5 10 6 0 8 6 4 13 -5 9 -4 9 6 0 9 -8 20
-8 44 2 17 7 33 12 35 10 2 -2 -22 -29 -54 -59z m20 -1415 c-3 -5 5 -17 17
-25 12 -9 19 -16 14 -16 -4 0 25 -32 64 -70 39 -39 77 -67 82 -64 7 4 8 2 4
-4 -4 -7 -2 -12 5 -12 7 0 10 -3 6 -6 -3 -3 3 -30 13 -60 11 -30 15 -54 10
-54 -4 0 -28 21 -52 47 -23 25 -56 61 -73 78 -16 17 -36 43 -44 58 -8 15 -18
27 -23 27 -4 0 -8 7 -8 15 0 8 -5 15 -11 15 -5 0 -7 5 -4 10 3 6 1 10 -4 10
-6 0 -10 3 -9 8 1 4 -3 17 -10 30 -11 20 -11 22 8 22 12 0 19 -4 15 -9z m866
-365 c24 14 5 -25 -25 -52 -40 -37 -62 -52 -52 -36 3 6 -8 4 -25 -5 -34 -17
-123 -22 -154 -8 -11 4 -24 9 -30 9 -20 2 -85 30 -85 36 0 15 14 19 31 9 14
-7 19 -6 20 3 0 7 2 8 5 2 5 -12 93 -8 109 6 7 6 14 8 17 5 8 -9 108 16 108
26 0 6 4 8 9 5 5 -4 20 -2 33 3 13 5 24 5 26 0 2 -5 8 -7 13 -3z m854 -171
c-3 -33 -12 -42 -27 -27 -7 7 -16 8 -23 2 -6 -5 -16 -5 -25 1 -12 8 -12 12 -2
16 7 2 19 11 27 20 8 8 19 11 25 8 5 -3 10 -1 10 5 0 6 4 9 9 6 5 -4 8 -17 6
-31z m245 24 c14 4 32 6 40 5 8 -1 21 -2 28 -3 6 0 12 -9 12 -20 0 -16 -9 -18
-80 -18 -77 -1 -80 0 -78 22 2 19 6 21 28 15 14 -4 36 -4 50 -1z m-735 -39 c3
-5 1 -10 -5 -10 -6 0 -8 -5 -5 -10 3 -6 -1 -13 -9 -16 -9 -3 -14 -9 -11 -14 2
-4 -7 -12 -21 -19 -20 -9 -24 -9 -18 1 6 9 3 9 -9 -1 -9 -7 -17 -9 -17 -4 0 5
-10 9 -22 10 -33 3 -52 27 -39 49 6 11 11 13 11 6 0 -9 6 -10 18 -4 9 5 35 10
57 11 22 2 42 5 44 7 7 7 20 4 26 -6z"/>
</g>
</svg>
