<?xml version="1.0" standalone="no"?>
<!DOCTYPE svg PUBLIC "-//W3C//DTD SVG 20010904//EN"
 "http://www.w3.org/TR/2001/REC-SVG-20010904/DTD/svg10.dtd">
<svg version="1.0" xmlns="http://www.w3.org/2000/svg"
 width="500.000000pt" height="500.000000pt" viewBox="0 0 500.000000 500.000000"
 preserveAspectRatio="xMidYMid meet">
<metadata>
Created by potrace 1.14, written by Peter Selinger 2001-2017
</metadata>
<g transform="translate(0.000000,500.000000) scale(0.100000,-0.100000)"
fill="#000000" stroke="none">
<path d="M2368 4857 c-96 -41 -164 -111 -194 -200 -14 -42 -17 -86 -17 -227 1
-96 2 -816 3 -1598 2 -1333 3 -1425 19 -1441 14 -14 15 -20 4 -29 -7 -7 -11
-18 -8 -25 2 -6 46 -145 99 -307 52 -162 111 -347 131 -410 20 -63 44 -121 53
-127 29 -23 70 -16 85 15 8 15 74 206 147 425 96 290 130 405 125 424 -4 17
-2 29 7 34 11 7 13 267 11 1421 -1 777 -2 1427 -2 1443 0 17 1 86 2 155 3 228
-20 311 -107 386 -66 57 -118 76 -215 81 -74 3 -94 0 -143 -20z m240 -82 c52
-21 114 -90 130 -143 7 -23 12 -105 12 -196 l0 -156 -27 -1 c-137 -3 -474 -1
-479 4 -3 3 -6 76 -6 162 0 149 1 158 27 211 30 61 88 111 153 130 51 15 139
10 190 -11z m143 -615 c1 -43 1 -2627 0 -2691 l-1 -46 -252 1 -253 1 0 1385 0
1385 252 0 253 0 1 -35z m-21 -2832 c0 -5 -53 -167 -117 -359 -113 -340 -117
-349 -129 -317 -7 18 -59 175 -115 348 -56 173 -103 320 -106 326 -3 8 64 11
232 11 130 0 235 -4 235 -9z"/>
<path d="M2399 2808 c-1 -16 -1 -191 0 -200 1 -5 46 -8 101 -8 l100 0 0 110 0
110 -100 0 c-73 0 -100 -3 -101 -12z"/>
<path d="M2397 2418 c1 -57 2 -106 2 -110 1 -5 46 -8 101 -8 l100 0 0 110 0
110 -102 0 -103 0 2 -102z"/>
<path d="M2399 2193 c0 -16 -1 -65 -2 -111 l-2 -82 103 0 102 0 0 110 0 110
-100 0 -100 0 -1 -27z"/>
<path d="M1452 4731 c-8 -4 -15 -30 -16 -60 -4 -62 15 -95 47 -85 30 9 37 22
37 72 0 70 -27 99 -68 73z"/>
<path d="M3487 4720 c-16 -24 -13 -120 4 -131 20 -12 43 -11 57 3 13 13 16
106 4 126 -14 21 -50 23 -65 2z"/>
<path d="M328 4569 c-17 -9 -18 -59 -18 -819 0 -775 1 -810 18 -821 12 -7 17
-20 15 -33 -6 -27 163 -196 195 -196 27 0 46 34 33 58 -10 18 -166 164 -182
170 -5 2 -7 8 -4 13 3 5 6 370 6 811 0 755 -1 803 -17 815 -21 15 -24 15 -46
2z"/>
<path d="M4626 4567 c-17 -12 -18 -56 -18 -814 0 -441 3 -806 6 -812 4 -6 3
-11 -2 -11 -15 0 -176 -169 -178 -187 -4 -23 14 -43 37 -43 10 0 57 39 105 87
65 66 85 92 81 109 -2 13 3 26 15 33 17 11 18 46 18 815 0 718 -2 806 -16 820
-19 19 -25 20 -48 3z"/>
<path d="M3490 4425 c-16 -19 -17 -110 0 -130 17 -21 47 -19 60 4 5 11 10 38
10 61 0 23 -5 50 -10 61 -13 23 -43 25 -60 4z"/>
<path d="M1442 4413 c-5 -10 -8 -40 -7 -67 2 -60 26 -85 59 -62 16 10 21 25
23 62 1 26 -3 56 -8 66 -12 23 -56 23 -67 1z"/>
<path d="M937 4128 c-12 -20 -14 -47 -8 -115 1 -17 37 -26 59 -14 16 8 19 21
18 70 -1 65 -1 66 -33 75 -16 5 -25 1 -36 -16z"/>
<path d="M4011 4121 c-20 -13 -24 -116 -5 -136 18 -17 33 -19 54 -5 21 13 20
127 -1 141 -18 11 -30 11 -48 0z"/>
<path d="M1448 4037 c-11 -11 -13 -186 -13 -951 0 -862 1 -939 17 -950 9 -6
18 -24 20 -38 2 -20 43 -57 183 -167 99 -78 185 -141 192 -141 16 0 43 28 43
46 0 12 -211 187 -329 272 l-41 30 -1 932 c0 549 -4 941 -9 956 -10 27 -41 32
-62 11z"/>
<path d="M3491 4041 c-13 -8 -15 -145 -15 -954 l-1 -945 -179 -139 c-99 -76
-184 -146 -190 -155 -14 -23 2 -52 31 -56 12 -2 73 39 169 113 216 168 222
174 219 193 -1 9 6 25 16 35 18 17 19 52 19 948 0 622 -3 937 -10 950 -11 20
-36 24 -59 10z"/>
<path d="M939 3824 c-14 -17 -18 -97 -6 -126 4 -11 17 -18 31 -18 31 0 43 22
43 80 1 66 -37 101 -68 64z"/>
<path d="M4011 3821 c-21 -13 -23 -111 -3 -133 36 -43 73 -4 68 71 -5 64 -27
86 -65 62z"/>
<path d="M931 3416 c-8 -10 -11 -216 -11 -754 0 -729 1 -741 20 -755 12 -8 18
-21 15 -29 -7 -18 24 -46 407 -370 141 -120 263 -218 271 -218 21 0 39 25 35
48 -2 11 -55 64 -118 117 -63 54 -137 117 -165 140 -155 133 -349 296 -363
307 -17 12 -18 63 -17 748 1 452 -3 744 -9 758 -10 25 -47 30 -65 8z"/>
<path d="M4002 3413 c-5 -10 -9 -345 -8 -761 1 -408 -2 -742 -6 -742 -6 0
-436 -366 -595 -507 -65 -57 -77 -85 -44 -103 28 -15 34 -13 72 20 19 16 167
143 329 282 196 169 294 260 292 270 -1 10 5 26 15 38 17 19 18 65 19 748 0
400 -3 737 -7 750 -10 27 -54 30 -67 5z"/>
<path d="M1111 198 c-24 -8 -30 -27 -20 -55 l8 -23 1390 0 c764 0 1396 3 1405
6 10 4 16 18 16 35 0 23 -5 30 -27 35 -36 9 -2748 11 -2772 2z"/>
<path d="M4183 197 c-33 -18 -37 -50 -9 -69 13 -9 98 -10 120 -2 19 7 22 62 4
69 -27 10 -98 11 -115 2z"/>
</g>
</svg>
